<?xml version='1.0' encoding='utf-8'?>
<svg xmlns="http://www.w3.org/2000/svg" enable-background="new 0 0 5000 5000" version="1.1" viewBox="0 0 5e3 5e3"> <style type="text/css">.st0{fill:url(#a);} .st1{fill:#FFFFFF;}</style> <linearGradient id="a" x1="5024" x2="7.3621" y1="-24" y2="4992.6" gradientUnits="userSpaceOnUse"> <stop stop-color="#D6B038" offset="0"/> <stop stop-color="#D6AB39" offset=".060219"/> <stop stop-color="#D59D3A" offset=".1299"/> <stop stop-color="#D3863D" offset=".2043"/> <stop stop-color="#D16540" offset=".282"/> <stop stop-color="#CE3C45" offset=".3614"/> <stop stop-color="#CC2747" offset=".3973"/> <stop stop-color="#CA284B" offset=".4526"/> <stop stop-color="#C52B57" offset=".5075"/> <stop stop-color="#BB306B" offset=".5624"/> <stop stop-color="#AF3787" offset=".6169"/> <stop stop-color="#A33EA0" offset=".6568"/> <stop stop-color="#9C3EA0" offset=".7136"/> <stop stop-color="#893E9F" offset=".7964"/> <stop stop-color="#693F9F" offset=".8951"/> <stop stop-color="#3F3F9E" offset="1"/> </linearGradient> <rect class="st0" width="5e3" height="5e3"/> <path class="st1" d="m3143.5 977.7h-1287c-485.3 0-878.7 393.4-878.7 878.8v1287c0 485.4 393.4 878.8 878.7 878.8h1287c485.3 0 878.8-393.4 878.8-878.8v-1287c0-485.3-393.5-878.8-878.8-878.8m598.4 2188.4c0 322.2-261.2 583.3-583.3 583.3h-1317.2c-322.1 0-583.3-261.1-583.3-583.3v-1317.1c0-322.2 261.2-583.3 583.3-583.3h1317.1c322.2 0 583.3 261.1 583.3 583.3v1317.1z"/> <path class="st1" d="m2500 1717.6c-436.3 0-790 353.6-790 790 0 436.3 353.7 790 790 790s790-353.7 790-790-353.7-790-790-790m0 1302.1c-282.8 0-512.1-229.3-512.1-512.1s229.3-512 512.1-512 512.1 229.2 512.1 512-229.3 512.1-512.1 512.1"/> <path class="st1" d="m3316.3 1503.5c-101.6 0-184 82.4-184 184s82.4 184 184 184 184.1-82.4 184.1-184c-0.1-101.6-82.5-184-184.1-184"/> </svg>